HIERARCHY
ROOT Hips
{
	OFFSET 0.000000 0.000000 0.000000
	CHANNELS 6 Xposition Yposition Zposition Zrotation Yrotation Xrotation 
	JOINT LeftUpLeg_virtual
	{
		OFFSET 0.000000 0.000000 0.000000
		CHANNELS 3 Zrotation Yrotation Xrotation
		JOINT LeftUpLeg
		{
			OFFSET 8.479694 -4.795517 -0.379053
			CHANNELS 3 Zrotation Yrotation Xrotation
			JOINT LeftLeg
			{
				OFFSET 0.485052 -32.551468 0.112863
				CHANNELS 3 Zrotation Yrotation Xrotation
				JOINT LeftFoot
				{
					OFFSET 0.438033 -32.635670 -3.012641
					CHANNELS 3 Zrotation Yrotation Xrotation
					JOINT LeftToeBase
					{
						OFFSET 0.970169 -13.225353 11.864223
						CHANNELS 3 Zrotation Yrotation Xrotation
						End Site
						{
							OFFSET 0.000000 0.000000 0.000000
						}
					}
				}
			}
		}
	}
	JOINT RightUpLeg_virtual
	{
		OFFSET 0.000000 0.000000 0.000000
		CHANNELS 3 Zrotation Yrotation Xrotation
		JOINT RightUpLeg
		{
			OFFSET -8.479694 -4.795517 -0.379053
			CHANNELS 3 Zrotation Yrotation Xrotation
			JOINT RightLeg
			{
				OFFSET -0.484100 -32.551483 0.112903
				CHANNELS 3 Zrotation Yrotation Xrotation
				JOINT RightFoot
				{
					OFFSET -0.438985 -32.635651 -3.012681
					CHANNELS 3 Zrotation Yrotation Xrotation
					JOINT RightToeBase
					{
						OFFSET -0.970169 -13.225354 11.864223
						CHANNELS 3 Zrotation Yrotation Xrotation
						End Site
						{
							OFFSET 0.000000 0.000000 0.000000
						}
					}
				}
			}
		}
	}
	JOINT Spine_virtual
	{
		OFFSET 0.000000 0.000000 0.000000
		CHANNELS 3 Zrotation Yrotation Xrotation
		JOINT Spine
		{
			OFFSET 0.000000 7.722015 1.166203
			CHANNELS 3 Zrotation Yrotation Xrotation
			JOINT Spine1
			{
				OFFSET 0.000000 12.024086 0.248766
				CHANNELS 3 Zrotation Yrotation Xrotation
				JOINT Spine2
				{
					OFFSET -0.000000 11.503036 -0.491240
					CHANNELS 3 Zrotation Yrotation Xrotation
					JOINT Neck_virtual
					{
						OFFSET 0.000000 0.000000 0.000000
						CHANNELS 3 Zrotation Yrotation Xrotation
						JOINT Neck
						{
							OFFSET 0.000000 18.430687 -3.123054
							CHANNELS 3 Zrotation Yrotation Xrotation
							JOINT Head
							{
								OFFSET -0.000000 9.051071 1.034021
								CHANNELS 3 Zrotation Yrotation Xrotation
								End Site
								{
									OFFSET 0.000000 0.000000 0.000000
								}
							}
						}
					}
					JOINT LeftShoulder_virtual
					{
						OFFSET 0.000000 0.000000 0.000000
						CHANNELS 3 Zrotation Yrotation Xrotation
						JOINT LeftShoulder
						{
							OFFSET 6.197824 13.665230 -4.064723
							CHANNELS 3 Zrotation Yrotation Xrotation
							JOINT LeftArm
							{
								OFFSET 7.778132 -0.187073 -1.709282
								CHANNELS 3 Zrotation Yrotation Xrotation
								JOINT LeftForeArm
								{
									OFFSET 21.954697 0.000000 -2.041093
									CHANNELS 3 Zrotation Yrotation Xrotation
									JOINT LeftHand
									{
										OFFSET 22.992908 0.000000 -0.870901
										CHANNELS 3 Zrotation Yrotation Xrotation
										End Site
										{
											OFFSET 0.000000 0.000000 0.000000
										}
									}
								}
							}
						}
					}
					JOINT RightShoulder_virtual
					{
						OFFSET 0.000000 0.000000 0.000000
						CHANNELS 3 Zrotation Yrotation Xrotation
						JOINT RightShoulder
						{
							OFFSET -6.197824 13.665230 -4.064723
							CHANNELS 3 Zrotation Yrotation Xrotation
							JOINT RightArm
							{
								OFFSET -7.778132 -0.187073 -1.709282
								CHANNELS 3 Zrotation Yrotation Xrotation
								JOINT RightForeArm
								{
									OFFSET -21.954697 0.000000 -2.041093
									CHANNELS 3 Zrotation Yrotation Xrotation
									JOINT RightHand
									{
										OFFSET -22.992908 0.000000 -0.870901
										CHANNELS 3 Zrotation Yrotation Xrotation
										End Site
										{
											OFFSET 0.000000 0.000000 0.000000
										}
									}
								}
							}
						}
					}
				}
			}
		}
	}
}
MOTION
Frames: 7
Frame Time: 0.033333
-20.756655 78.754433 105.343010 -179.944612 7.921270 179.958901 -3.099316 -0.928426 11.799288 0.275926 -1.139975 -34.524226 8.651653 5.247618 29.674792 -6.538080 -8.319304 -13.192469 0.000000 0.000000 0.000000 1.617537 -1.858807 10.610446 -1.679191 7.490648 -34.672875 -1.432324 2.554691 34.844787 3.258083 4.167497 -13.349635 0.000000 0.000000 0.000000 4.178870 0.471054 0.008333 -2.431111 -0.537904 -2.483801 -0.457901 -1.738047 11.509526 0.020076 -0.048291 -0.014959 -0.643929 -0.278204 12.895925 1.747916 -2.513001 -5.146444 0.000000 0.000000 0.000000 0.539540 0.335814 9.961722 -13.139187 -9.638363 3.721896 -56.876823 -9.410284 8.476605 -1.848567 -13.925938 7.911907 0.000000 0.000000 0.000000 -3.161003 1.777178 9.410799 27.547507 3.799628 8.063751 42.844848 8.433572 8.737854 -4.612328 21.760867 -3.291234 0.000000 0.000000 0.000000 
-20.789024 78.755043 105.387054 -179.904901 7.923244 179.924887 -3.199044 -1.014781 11.704842 0.185711 -1.358783 -34.587976 8.225541 4.810407 29.418564 -7.030522 -8.877879 -13.321166 0.000000 0.000000 0.000000 1.675910 -1.706368 10.591392 -1.646198 7.645060 -34.639673 -1.688647 2.294691 35.203222 2.882498 3.685212 -13.018807 0.000000 0.000000 0.000000 4.249628 0.468502 0.061343 -2.409876 -0.542963 -2.481876 -0.418794 -1.744233 11.507813 0.012601 -0.065053 -0.032068 -0.746832 -0.572443 12.897816 1.701485 -2.525160 -5.092674 0.000000 0.000000 0.000000 0.471727 0.370172 9.885872 -13.204526 -9.611020 3.704757 -56.863374 -9.384663 8.607666 -1.783789 -13.554084 7.916217 0.000000 0.000000 0.000000 -3.204995 1.788840 9.486356 27.549939 3.847988 8.050141 42.925324 8.416671 8.889822 -4.573951 21.603221 -3.265113 0.000000 0.000000 0.000000 
-20.826199 78.749794 105.415268 -179.884725 7.911002 179.889288 -3.165787 -1.007160 11.631212 0.108050 -1.257696 -34.525168 8.230466 4.919736 29.456352 -7.172664 -8.894715 -13.233638 0.000000 0.000000 0.000000 1.699182 -1.670676 10.514300 -1.696528 7.782410 -34.547271 -1.767907 2.337028 35.160933 2.825129 3.618469 -12.977972 0.000000 0.000000 0.000000 4.306850 0.491317 0.088190 -2.385490 -0.540846 -2.511415 -0.496000 -1.723809 11.569428 -0.024527 -0.018742 -0.061981 -0.745502 -0.360535 12.865596 1.716686 -2.629778 -5.081701 0.000000 0.000000 0.000000 0.478498 0.331845 9.938805 -13.221595 -9.671283 3.764444 -56.812253 -9.465952 8.703321 -1.695824 -13.143121 7.908766 0.000000 0.000000 0.000000 -3.205030 1.815825 9.455693 27.671663 3.780031 8.057221 42.960865 8.423421 9.071097 -4.572961 21.473387 -3.487856 0.000000 0.000000 0.000000 
-20.881865 78.747810 105.425331 -179.892566 7.911590 179.877895 -3.141179 -1.044665 11.515906 -0.003695 -1.107888 -34.475513 8.231580 4.980575 29.558023 -7.284603 -8.854837 -13.184468 0.000000 0.000000 0.000000 1.720611 -1.706923 10.395201 -1.725551 7.869392 -34.456959 -1.774264 2.515733 35.241075 2.762443 3.526496 -12.960093 0.000000 0.000000 0.000000 4.299957 0.298684 0.026974 -2.335603 -0.686614 -2.536616 -0.549736 -1.667940 11.553287 -0.030069 -0.014708 -0.022774 -0.807999 -0.371328 12.938431 1.709087 -2.631884 -4.980002 0.000000 0.000000 0.000000 0.417859 0.445859 9.923254 -13.226701 -9.529894 3.751776 -56.798491 -9.371492 8.847091 -1.614621 -12.912783 7.959706 0.000000 0.000000 0.000000 -3.265025 1.931292 9.493979 27.651078 3.891347 8.021491 43.055535 8.584317 9.201526 -4.564164 21.361692 -3.412980 0.000000 0.000000 0.000000 
-20.968596 78.742805 105.462784 -179.879848 8.038993 179.899000 -3.095788 -1.091897 11.405656 -0.142225 -0.879255 -34.451973 8.239779 5.033367 29.625023 -7.361428 -8.791405 -13.147815 0.000000 0.000000 0.000000 1.770060 -1.746238 10.260995 -1.821173 8.017590 -34.405244 -1.794026 2.577751 35.245555 2.824478 3.552492 -12.907527 0.000000 0.000000 0.000000 4.332024 0.258934 -0.021800 -2.244301 -0.702718 -2.618505 -0.592585 -1.648503 11.579060 -0.030452 0.024512 0.005553 -0.846518 -0.401345 12.932474 1.741351 -2.737196 -4.929017 0.000000 0.000000 0.000000 0.372607 0.432001 9.923293 -13.184633 -9.445625 3.691834 -56.777935 -9.231595 8.888710 -1.582927 -12.808561 8.084005 0.000000 0.000000 0.000000 -3.329118 1.905504 9.535380 27.658913 3.976340 8.044468 43.069383 8.708539 9.272043 -4.572572 21.407119 -3.446348 0.000000 0.000000 0.000000 
-21.081713 78.733826 105.520355 -179.870464 8.331519 179.909341 -3.043942 -1.132119 11.321117 -0.320447 -0.607463 -34.460978 8.261221 5.091412 29.736366 -7.365952 -8.708168 -13.133836 0.000000 0.000000 0.000000 1.825021 -1.810145 10.118590 -1.953614 8.158802 -34.409940 -1.769027 2.694514 35.297226 2.955997 3.617409 -12.877925 0.000000 0.000000 0.000000 4.360170 0.441097 -0.105761 -2.122631 -0.635759 -2.629819 -0.634584 -1.812685 11.599359 -0.024060 -0.098416 -0.031109 -0.884023 -0.439942 13.020017 1.783556 -2.771139 -4.828437 0.000000 0.000000 0.000000 0.320205 0.378621 10.019237 -13.136919 -9.341146 3.649631 -56.747476 -9.019678 8.930279 -1.593361 -12.798412 8.183295 0.000000 0.000000 0.000000 -3.374929 1.880038 9.580348 27.666752 4.078643 8.096750 43.046099 8.794223 9.318766 -4.638060 21.604317 -3.531064 0.000000 0.000000 0.000000 
-21.221203 78.720520 105.578972 -179.862513 8.805971 179.967247 -2.990904 -1.137465 11.236798 -0.529773 -0.314453 -34.515579 8.293727 5.171369 29.866672 -7.288733 -8.629082 -13.110750 0.000000 0.000000 0.000000 1.892382 -1.845411 9.981766 -2.123267 8.272016 -34.472009 -1.698941 2.854353 35.377037 3.159588 3.719159 -12.864543 0.000000 0.000000 0.000000 4.363620 0.338651 -0.213882 -1.989788 -0.582238 -2.633804 -0.659141 -1.735782 11.616323 -0.045067 -0.021559 -0.002729 -0.846293 -0.339356 12.986604 1.904419 -2.887646 -4.736014 0.000000 0.000000 0.000000 0.325943 0.344596 10.027487 -13.020978 -9.224347 3.576008 -56.708540 -8.764452 8.844654 -1.613673 -12.854737 8.310286 0.000000 0.000000 0.000000 -3.394386 1.797517 9.515800 27.653148 4.147782 8.115363 43.046653 8.808895 9.081133 -4.612408 21.910596 -3.500808 0.000000 0.000000 0.000000 
